#!OML:ASF H:\GeneralSubjects\Female5\Project 1\Capture day 1\Session 1\Female5.ASF
:FULLY-SPECIFIED
:DEGREES
359
root -4.29136 16.5561 5.54184 -19.8359 85.3849 -50.0529
lowerback 11.4854 0.814468 2.11926
upperback -2.58477 1.57143 1.64747
thorax -9.22325 0.701622 0.261823
lowerneck -15.13 -0.485273 1.52016
upperneck 27.4472 0.640225 -4.0672
head 11.4459 0.125808 -1.62887
rclavicle -4.67144e-015 1.94809e-014
rhumerus -78.0164 -1.11614 35.1204
rradius 6.71189
rwrist 98.6009
rhand -14.1728 -24.2701
rfingers 7.12502
rthumb 11.9625 -53.9083
lclavicle -4.67144e-015 1.94809e-014
lhumerus -75.2797 5.22135 -43.369
lradius 12.5595
lwrist -125.831
lhand -18.332 32.1632
lfingers 7.12502
lthumb 7.94994 61.9938
rfemur -33.7193 18.4721 23.8631
rtibia 6.23952
rfoot -18.8154 -22.1328
rtoes -35.9806
lfemur -22.0449 -27.4644 -17.6119
ltibia 2.32313
lfoot -34.4505 1.00652
ltoes -37.3205
360
root -4.21768 16.5576 5.57071 -18.6092 85.1928 -49.2862
lowerback 12.1209 0.753696 2.27347
upperback -2.19866 1.5107 1.52226
thorax -9.16389 0.660504 0.0446474
lowerneck -15.4631 -0.30377 1.55093
upperneck 27.0518 0.756984 -3.79978
head 11.3649 0.199067 -1.51756
rclavicle 1.22253e-014 3.97569e-016
rhumerus -78.5487 -6.58392 57.2466
rradius 9.08564
rwrist 120.532
rhand -15.3609 -23.4415
rfingers 7.12502
rthumb 10.8167 -53.1429
lclavicle 1.22253e-014 3.97569e-016
lhumerus -74.4828 5.60553 -43.3347
lradius 12.7846
lwrist -125.091
lhand -18.8238 32.1452
lfingers 7.12502
lthumb 7.47527 61.9931
rfemur -35.9875 16.5685 24.7639
rtibia 8.80748
rfoot -18.2887 -20.3759
rtoes -38.928
lfemur -22.8108 -26.8771 -17.4214
ltibia 3.40762
lfoot -34.4041 0.108624
ltoes -37.0613
361
root -4.14547 16.5441 5.6002 -16.9377 84.9796 -48.0538
lowerback 12.9992 0.700178 2.41793
upperback -1.9048 1.47212 1.38795
thorax -9.34502 0.628332 -0.184836
lowerneck -15.8117 -0.137293 1.56435
upperneck 26.6882 0.849853 -3.49388
head 11.2983 0.265321 -1.39335
rclavicle -1.89839e-014 -3.39922e-014
rhumerus -81.7528 -11.7029 79.7574
rradius 11.2208
rwrist 142.408
rhand -19.2263 -23.218
rfingers 7.12502
rthumb 7.08667 -53.0794
lclavicle -1.89839e-014 -3.39922e-014
lhumerus -73.891 5.94661 -42.0553
lradius 12.9462
lwrist -122.929
lhand -20.1143 32.1283
lfingers 7.12502
lthumb 6.22947 62.0167
rfemur -38.2495 15.8786 25.0195
rtibia 10.6949
rfoot -17.9976 -19.5043
rtoes -41.3783
lfemur -23.8785 -25.688 -17.4627
ltibia 5.19473
lfoot -33.8234 -1.53532
ltoes -36.068
362
root -4.07347 16.5122 5.63075 -15.3073 84.7771 -46.8561
lowerback 14.0998 0.644369 2.55512
upperback -1.72686 1.44414 1.25608
thorax -9.78063 0.598087 -0.413843
lowerneck -16.1934 0.00567419 1.59236
upperneck 26.3936 0.911309 -3.18716
head 11.2633 0.320106 -1.2769
rclavicle 1.28216e-014 5.6753e-014
rhumerus -82.6204 -13.3634 83.7187
rradius 12.503
rwrist 145.754
rhand -21.3796 -23.8654
rfingers 7.12502
rthumb 5.00784 -53.7862
lclavicle 1.28216e-014 5.6753e-014
lhumerus -73.4782 6.17193 -39.6475
lradius 13.0931
lwrist -119.438
lhand -21.6591 32.1596
lfingers 7.12502
lthumb 4.73798 62.0866
rfemur -40.453 16.0714 24.7221
rtibia 11.8942
rfoot -17.8623 -19.3307
rtoes -43.1621
lfemur -25.3382 -23.9403 -17.706
ltibia 7.7888
lfoot -32.6579 -3.50221
ltoes -35.016
363
root -3.99925 16.4588 5.66287 -14.1439 84.6183 -46.1407
lowerback 15.3309 0.543928 2.49483
upperback -1.65223 1.34619 1.26888
thorax -10.4153 0.547338 -0.360521
lowerneck -16.5691 0.189578 1.69554
upperneck 26.0977 1.0648 -3.06969
head 11.2305 0.401056 -1.22933
rclavicle 1.63003e-014 4.09993e-014
rhumerus -83.2384 -14.7754 85.4786
rradius 13.2451
rwrist 146.696
rhand -23.5386 -24.716
rfingers 7.12502
rthumb 2.92292 -54.6757
lclavicle 1.63003e-014 4.09993e-014
lhumerus -73.5461 6.3167 -36.7879
lradius 13.2668
lwrist -115.297
lhand -23.5432 32.2346
lfingers 7.12502
lthumb 2.91856 62.1943
rfemur -42.6225 16.8671 23.9512
rtibia 12.5704
rfoot -17.9256 -19.7512
rtoes -44.121
lfemur -27.2489 -21.8735 -18.0508
ltibia 11.2146
lfoot -31.0611 -5.62824
ltoes -34.0258
364
root -3.92009 16.3808 5.69701 -13.7313 84.5347 -46.2175
lowerback 16.6433 0.42177 2.42167
upperback -1.69211 1.22674 1.32545
thorax -11.2273 0.487127 -0.243124
lowerneck -16.9542 0.354733 1.87571
upperneck 25.7885 1.1937 -3.04188
head 11.1947 0.46756 -1.2308
rclavicle 2.68856e-014 5.55106e-014
rhumerus -83.9867 -15.9548 86.4601
rradius 13.679
rwrist 146.628
rhand -25.6884 -25.7361
rfingers 7.12502
rthumb 0.84673 -55.7142
lclavicle 2.68856e-014 5.55106e-014
lhumerus -73.7936 6.16518 -32.7362
lradius 13.423
lwrist -109.668
lhand -25.5535 32.397
lfingers 7.12502
lthumb 0.976997 62.3745
rfemur -44.8019 18.0209 22.7835
rtibia 12.9487
rfoot -18.0991 -20.7263
rtoes -44.4534
lfemur -29.6218 -19.7642 -18.3913
ltibia 15.4069
lfoot -29.2189 -7.72602
ltoes -33.1871
365
root -3.8336 16.2751 5.7336 -14.0344 84.5531 -47.0788
lowerback 17.9888 0.273137 2.31217
upperback -1.8584 1.07544 1.44702
thorax -12.2078 0.416754 -0.0172558
lowerneck -17.3438 0.50593 2.06939
upperneck 25.4449 1.31469 -3.07993
head 11.1475 0.523526 -1.25912
rclavicle 4.74598e-015 2.08475e-014
rhumerus -85.0268 -16.9921 87.2775
rradius 13.916
rwrist 146.173
rhand -27.6412 -26.7708
rfingers 7.12502
rthumb -1.03942 -56.7481
lclavicle 4.74598e-015 2.08475e-014
lhumerus -74.3051 6.00003 -28.0747
lradius 13.5482
lwrist -103.164
lhand -27.3066 32.7157
lfingers 7.12502
lthumb -0.716203 62.6943
rfemur -47.0242 19.3338 21.2686
rtibia 13.2229
rfoot -18.4068 -22.0512
rtoes -44.0696
lfemur -32.4265 -17.8225 -18.6746
ltibia 20.2369
lfoot -27.2683 -9.63033
ltoes -32.6153
366
root -3.73803 16.1393 5.77286 -14.839 84.6817 -48.538
lowerback 19.3094 0.112592 2.17021
upperback -2.15376 0.909155 1.62549
thorax -13.3309 0.346873 0.307524
lowerneck -17.7144 0.624647 2.20957
upperneck 25.0318 1.40863 -3.14185
head 11.0698 0.559155 -1.29
rclavicle 9.19379e-016 2.43946e-014
rhumerus -86.388 -17.8458 88.0444
rradius 13.9609
rwrist 145.59
rhand -29.181 -27.8523
rfingers 7.12502
rthumb -2.52651 -57.8171
lclavicle 9.19379e-016 2.43946e-014
lhumerus -74.9976 5.77366 -22.4548
lradius 13.6785
lwrist -95.432
lhand -28.7917 32.7944
lfingers 7.12502
lthumb -2.15055 62.7634
rfemur -49.2838 20.4402 19.6812
rtibia 13.6869
rfoot -18.7163 -23.3828
rtoes -43.2768
lfemur -35.6026 -16.1924 -18.8776
ltibia 25.5581
lfoot -25.3141 -11.2604
ltoes -32.3425
